<svg width="52" height="26" viewBox="0 0 52 26" fill="none" xmlns="http://www.w3.org/2000/svg">
<g filter="url(#filter0_d)">
<path d="M25.4021 0.51123L21.0223 13.6865H17.6943L14.7489 4.76497L11.7078 13.6865H8.39901L4 0.51123H7.21319L10.2351 9.77158L13.3909 0.51123H16.2599L19.32 9.84687L22.4376 0.51123H25.4021Z" fill="#141517"/>
<path d="M30.3061 3.40979C31.8999 3.40979 33.124 3.78623 33.9783 4.53911C34.8326 5.27943 35.2597 6.40247 35.2597 7.90822V13.6865H32.4673V12.4255C31.9063 13.3666 30.8607 13.8371 29.3306 13.8371C28.5401 13.8371 27.8515 13.7053 27.265 13.4418C26.6912 13.1783 26.2513 12.8144 25.9453 12.3502C25.6393 11.8859 25.4863 11.3589 25.4863 10.7691C25.4863 9.82805 25.8433 9.08772 26.5573 8.54816C27.2841 8.0086 28.3998 7.73882 29.9044 7.73882H32.276C32.276 7.09888 32.0784 6.60951 31.6831 6.27072C31.2879 5.91938 30.6949 5.7437 29.9044 5.7437C29.3561 5.7437 28.8142 5.83154 28.2787 6.00721C27.7559 6.17033 27.3096 6.3962 26.9399 6.6848L25.8688 4.63322C26.4298 4.24423 27.0992 3.94308 27.877 3.72977C28.6676 3.51645 29.4773 3.40979 30.3061 3.40979ZM30.0765 11.8608C30.5866 11.8608 31.0392 11.7479 31.4345 11.522C31.8298 11.2836 32.1103 10.9385 32.276 10.4868V9.45161H30.2295C29.0055 9.45161 28.3934 9.84687 28.3934 10.6374C28.3934 11.0138 28.5401 11.315 28.8333 11.5408C29.1394 11.7541 29.5538 11.8608 30.0765 11.8608Z" fill="#141517"/>
<path d="M47.9867 3.56037L43.339 14.3076C42.8672 15.4746 42.2807 16.2965 41.5794 16.7733C40.8909 17.2501 40.0557 17.4885 39.0739 17.4885C38.5384 17.4885 38.0092 17.407 37.4864 17.2439C36.9636 17.0807 36.5365 16.8549 36.205 16.5663L37.2952 14.477C37.5247 14.6778 37.7861 14.8347 38.0793 14.9476C38.3853 15.0605 38.685 15.117 38.9783 15.117C39.3863 15.117 39.7178 15.0166 39.9728 14.8158C40.2278 14.6276 40.4573 14.3076 40.6614 13.8559L40.6996 13.7618L36.2432 3.56037H39.3225L42.2106 10.4303L45.1177 3.56037H47.9867Z" fill="#141517"/>
<path d="M48 3.55957L43.3523 14.3068C42.8805 15.4738 42.294 16.2957 41.5927 16.7725C40.9042 17.2493 40.069 17.4877 39.0872 17.4877C38.5516 17.4877 38.0225 17.4062 37.4997 17.2431C36.9769 17.0799 36.5498 16.8541 36.2183 16.5655L37.3084 14.4762C37.538 14.677 37.7994 14.8339 38.0926 14.9468C38.3986 15.0597 38.6983 15.1162 38.9916 15.1162C39.3996 15.1162 39.7311 15.0158 39.9861 14.815C40.2411 14.6268 40.4706 14.3068 40.6747 13.8551L40.7129 13.761L42.2239 10.4295L45.131 3.55957H48Z" fill="#FE7865"/>
</g>
<defs>
<filter id="filter0_d" x="0" y="0.51123" width="52" height="24.9773" filterUnits="userSpaceOnUse" color-interpolation-filters="sRGB">
<feFlood flood-opacity="0" result="BackgroundImageFix"/>
<feColorMatrix in="SourceAlpha" type="matrix" values="0 0 0 0 0 0 0 0 0 0 0 0 0 0 0 0 0 0 127 0"/>
<feOffset dy="4"/>
<feGaussianBlur stdDeviation="2"/>
<feColorMatrix type="matrix" values="0 0 0 0 0 0 0 0 0 0 0 0 0 0 0 0 0 0 0.25 0"/>
<feBlend mode="normal" in2="BackgroundImageFix" result="effect1_dropShadow"/>
<feBlend mode="normal" in="SourceGraphic" in2="effect1_dropShadow" result="shape"/>
</filter>
</defs>
</svg>
